<svg width="342" height="283" viewBox="0 0 342 283" fill="none" xmlns="http://www.w3.org/2000/svg">
<g clip-path="url(#clip0_2_124)">
<path d="M254.96 271.491C265.75 279.853 279.306 283.817 292.9 282.583C306.494 281.349 319.116 275.01 328.224 264.841C337.333 254.673 342.251 241.43 341.99 227.78C341.729 214.129 336.307 201.085 326.816 191.272L254.96 271.491Z" fill="#F2F2F2"/>
<path d="M122.95 84.1274L56.2421 157.682C59.8824 165.596 65.3763 172.515 72.2582 177.853L144.114 97.6342C138.218 91.5315 130.967 86.9043 122.95 84.1274Z" fill="#F2F2F2"/>
<path d="M122.682 84.1661V41.1555H87.5762V84.0331C98.969 80.1815 111.319 80.2283 122.682 84.1661Z" fill="#473F97"/>
<path d="M87.5762 185.554V229.564H122.682V185.421C111.319 189.359 98.969 189.406 87.5762 185.554Z" fill="#473F97"/>
<path d="M105.318 188.975C75.4492 188.975 51.149 164.669 51.149 134.793C51.149 104.918 75.4492 80.6118 105.318 80.6118C135.187 80.6118 159.487 104.918 159.487 134.793C159.487 164.669 135.187 188.975 105.318 188.975ZM105.318 80.9893C75.6573 80.9893 51.5265 105.126 51.5265 134.793C51.5265 164.461 75.6573 188.598 105.318 188.598C134.979 188.598 159.109 164.461 159.109 134.793C159.109 105.126 134.979 80.9893 105.318 80.9893Z" fill="black"/>
<path d="M67.192 134.794C67.192 144.908 71.2088 154.607 78.3588 161.759C85.5088 168.911 95.2062 172.928 105.318 172.928V96.6587C95.2062 96.6587 85.5088 100.676 78.3588 107.828C71.2088 114.98 67.192 124.68 67.192 134.794Z" fill="#575A89"/>
<path d="M105.318 96.6587V172.928C115.429 172.928 125.127 168.911 132.277 161.759C139.427 154.607 143.444 144.908 143.444 134.794C143.444 124.68 139.427 114.98 132.277 107.828C125.127 100.676 115.429 96.6587 105.318 96.6587Z" fill="#473F97"/>
<path d="M105.318 141.967C108.237 141.967 110.603 139.601 110.603 136.681C110.603 133.762 108.237 131.395 105.318 131.395C102.399 131.395 100.033 133.762 100.033 136.681C100.033 139.601 102.399 141.967 105.318 141.967Z" fill="#2F2E41"/>
<path d="M105.309 117.296L106.626 127.744L107.942 138.192H105.309H102.676L103.992 127.744L105.309 117.296Z" fill="#2F2E41"/>
<path d="M136.828 136.978L119.648 137.621L102.469 138.263L102.478 136.762L102.488 135.261L119.658 136.12L136.828 136.978Z" fill="#2F2E41"/>
<path d="M161.374 139.324C160.5 139.324 160.147 138.724 159.701 137.963C159.589 137.774 159.468 137.568 159.328 137.35L159.646 137.146C159.789 137.368 159.912 137.578 160.026 137.772C160.471 138.53 160.716 138.947 161.374 138.947C163.56 138.947 165.338 135.305 165.338 130.829C165.338 126.353 163.56 122.711 161.374 122.711C160.112 122.711 159.235 123.49 158.529 125.236L158.179 125.095C158.951 123.185 159.936 122.334 161.374 122.334C163.768 122.334 165.715 126.145 165.715 130.829C165.715 135.513 163.768 139.324 161.374 139.324Z" fill="black"/>
<path d="M110.603 269.587C138.956 269.587 161.94 268.742 161.94 267.699C161.94 266.657 138.956 265.811 110.603 265.811C82.2496 265.811 59.2649 266.657 59.2649 267.699C59.2649 268.742 82.2496 269.587 110.603 269.587Z" fill="#F2F2F2"/>
<path d="M292.172 68.3407C296.55 68.3407 300.099 64.7907 300.099 60.4117C300.099 56.0326 296.55 52.4826 292.172 52.4826C287.794 52.4826 284.245 56.0326 284.245 60.4117C284.245 64.7907 287.794 68.3407 292.172 68.3407Z" fill="#F2F2F2"/>
<path d="M53.9801 -4.43582e-07C44.9334 0.00334902 36.0324 2.28008 28.0946 6.62114C20.1568 10.9622 13.4366 17.2284 8.55109 24.8444C3.66557 32.4604 0.771326 41.1821 0.134125 50.2086C-0.503076 59.235 1.13719 68.277 4.9043 76.5041L71.6121 2.94924C65.9399 0.991311 59.9806 -0.00547701 53.9801 -4.43582e-07Z" fill="#F2F2F2"/>
<path d="M233.336 100.32C239.849 100.32 245.128 95.039 245.128 88.5251C245.128 82.0112 239.849 76.7307 233.336 76.7307C226.824 76.7307 221.545 82.0112 221.545 88.5251C221.545 95.039 226.824 100.32 233.336 100.32Z" fill="#2F2E41"/>
<path d="M213.498 162.463C213.498 162.463 222.913 186.253 223.904 186.253C224.895 186.253 226.381 177.332 226.381 177.332L220.435 160.481L213.498 162.463Z" fill="#FFB9B9"/>
<path d="M227.372 97.5378C227.372 97.5378 229.85 107.946 228.859 109.928C227.868 111.911 230.841 114.884 230.841 114.884H237.778L242.733 106.954L243.724 103.485C243.724 103.485 240.751 95.5554 241.246 94.5641C241.742 93.5729 227.372 97.5378 227.372 97.5378Z" fill="#FFB9B9"/>
<path opacity="0.1" d="M227.372 97.5378C227.372 97.5378 229.85 107.946 228.859 109.928C227.868 111.911 230.841 114.884 230.841 114.884H237.778L242.733 106.954L243.724 103.485C243.724 103.485 240.751 95.5554 241.246 94.5641C241.742 93.5729 227.372 97.5378 227.372 97.5378Z" fill="black"/>
<path d="M255.12 266.047V271.499L261.562 272.986L262.057 266.047H255.12Z" fill="#575A89"/>
<path d="M228.859 168.411C228.859 168.411 221.922 180.801 224.399 187.244C226.877 193.687 236.291 225.406 236.291 225.406C236.291 225.406 241.742 243.249 241.742 244.24C241.742 245.231 246.201 267.038 247.688 267.534C249.174 268.029 262.553 269.516 263.048 268.029C263.544 266.542 264.039 258.613 262.553 257.126C261.066 255.639 253.138 209.547 253.138 209.547L252.147 194.183L264.535 232.345C264.535 232.345 268.003 255.143 269.49 256.63C270.976 258.117 266.517 259.604 268.003 261.091C269.49 262.578 274.94 266.542 274.445 268.029C273.949 269.516 286.337 269.516 287.823 268.525C289.31 267.534 288.814 252.17 288.814 252.17L281.877 231.354L273.949 180.801C273.949 180.801 271.472 165.933 269.49 165.933C267.508 165.933 228.859 168.411 228.859 168.411Z" fill="#2F2E41"/>
<path d="M256.607 269.516C256.607 269.516 252.643 266.047 250.661 267.038C248.679 268.029 242.237 277.446 240.255 276.95C238.273 276.455 235.3 282.284 240.255 282.78C245.21 283.275 253.138 282.284 253.138 282.284C254.777 282.557 256.433 282.722 258.093 282.78C260.075 282.78 264.535 283.275 264.535 282.78C264.535 282.284 263.544 271.003 263.048 271.003C262.553 271.003 257.102 271.003 256.607 269.516Z" fill="#2F2E41"/>
<path d="M283.859 266.047C283.859 266.047 278.904 265.056 278.409 266.047C277.913 267.038 275.931 270.012 275.931 270.507C275.931 271.003 276.922 276.95 276.922 277.446C276.922 277.942 277.913 279.428 278.904 280.42C279.184 280.656 279.383 280.975 279.472 281.331C279.56 281.687 279.535 282.061 279.4 282.402C279.4 282.402 292.283 283.889 292.283 281.907C292.283 279.924 290.796 275.464 289.805 274.472C288.814 273.481 286.832 266.542 283.859 266.047Z" fill="#2F2E41"/>
<path d="M233.318 101.998C239.065 101.998 243.724 97.3386 243.724 91.5904C243.724 85.8423 239.065 81.1825 233.318 81.1825C227.572 81.1825 222.913 85.8423 222.913 91.5904C222.913 97.3386 227.572 101.998 233.318 101.998Z" fill="#FFB9B9"/>
<path d="M229.354 110.424C229.354 110.424 235.3 113.893 238.769 108.441C242.237 102.99 253.138 119.345 253.138 119.345L256.111 169.898C256.111 169.898 250.661 170.393 241.246 172.871C231.832 175.349 227.372 169.402 227.372 169.402L226.877 140.656L227.868 127.275L226.381 116.371L227.372 109.928L229.354 110.424Z" fill="#473F97"/>
<path d="M218.453 116.867C218.453 116.867 214.489 117.858 213.498 124.797C212.507 131.735 210.525 152.551 210.525 152.551L213.003 164.941C213.003 164.941 219.94 159.49 222.417 161.968L220.931 154.534L222.417 150.073L217.958 130.744L218.453 116.867Z" fill="#473F97"/>
<path d="M228.308 101.998C228.308 101.998 227.372 101.998 227.372 105.468C227.372 108.937 217.958 113.893 217.958 113.893C217.958 113.893 216.967 115.38 216.967 119.345C216.967 123.31 216.967 132.726 217.958 135.7C218.949 138.674 220.435 148.586 220.931 149.577C221.426 150.569 221.426 155.029 220.435 156.02C219.444 157.012 222.913 162.959 223.904 163.455C224.895 163.95 220.435 176.836 222.913 177.332C225.39 177.827 229.85 171.384 231.336 167.915C232.823 164.446 231.832 116.371 231.336 112.902C230.841 109.433 228.308 101.998 228.308 101.998Z" fill="#575A89"/>
<path d="M242.113 98.8088C242.113 98.8088 241.742 96.5466 244.219 98.529C246.697 100.512 247.192 101.998 247.192 101.998C247.192 101.998 260.075 101.998 260.571 103.485C261.066 104.972 260.275 117.625 260.275 117.625L266.787 141.841C266.787 141.841 275.931 169.898 276.922 170.889C277.913 171.88 268.994 166.428 264.039 170.393C259.084 174.358 250.165 176.341 249.174 173.863C248.183 171.384 237.282 113.893 237.282 113.893C237.282 113.893 237.282 104.476 238.769 103.485C240.255 102.494 242.113 98.8088 242.113 98.8088Z" fill="#575A89"/>
<path d="M268.499 145.612L266.517 168.411L266.021 170.393L273.454 180.306C273.454 180.306 274.94 174.854 274.445 172.871C273.949 170.889 276.922 148.586 276.922 148.586L268.499 145.612Z" fill="#FFB9B9"/>
<path d="M225.171 84.1919C225.171 84.1919 222.764 77.9311 226.254 75.8843L227.217 78.6535C227.217 78.6535 236.005 73.3559 238.292 74.5599L236.125 77.4495C236.125 77.4495 246.357 77.4495 247.079 81.4227L243.468 81.5431C243.468 81.5431 247.32 84.0715 247.44 88.1652L239.736 88.6468L243.468 90.814C243.468 90.814 229.505 92.7404 226.134 87.202L225.171 84.1919Z" fill="#2F2E41"/>
<path d="M223.086 84.4394C223.086 84.4394 225.861 89.9898 229.56 88.6022C233.259 87.2146 229.56 82.1268 229.56 82.1268L227.094 80.8934L223.086 84.4394Z" fill="#2F2E41"/>
<path d="M312.179 282.613H204.219V282.991H312.179V282.613Z" fill="black"/>
<path d="M259.58 104.476C259.58 104.476 262.553 104.972 264.535 108.441C266.517 111.911 276.427 134.709 276.922 135.7C277.418 136.691 277.418 150.073 277.418 150.073C277.418 150.073 270.481 146.108 267.508 148.586L267.012 142.639L260.571 119.84L259.58 112.406L259.58 104.476Z" fill="#473F97"/>
</g>
<defs>
<clipPath id="clip0_2_124">
<rect width="342" height="283" fill="white"/>
</clipPath>
</defs>
</svg>
