<svg width="347" height="245" viewBox="0 0 347 245" fill="none" xmlns="http://www.w3.org/2000/svg">
<g clip-path="url(#clip0_2_78)">
<path d="M177.22 244.481C187.657 244.481 196.117 236.004 196.117 225.548C196.117 215.092 187.657 206.615 177.22 206.615C166.783 206.615 158.323 215.092 158.323 225.548C158.323 236.004 166.783 244.481 177.22 244.481Z" fill="#473F97"/>
<path d="M290.113 243.417C300.685 240.236 311.924 236.919 320.309 229.357C327.801 222.6 332.859 212.281 329.755 202.147C326.658 192.033 317.38 185.29 307.801 181.936C302.368 180.033 296.684 178.978 291.002 178.149C284.826 177.248 278.622 176.509 272.421 175.799C247.313 172.922 222.111 171.164 196.814 170.526C184.332 170.211 171.852 170.219 159.368 170.4C148.219 170.562 136.477 170.558 126.134 165.811C118.091 162.119 110.791 155.402 108.55 146.576C105.963 136.387 110.735 126.012 117.58 118.633C121.188 114.743 125.405 111.47 129.755 108.459C134.474 105.194 139.357 102.16 144.347 99.3271C154.174 93.7513 164.448 89.006 175.062 85.1404C180.298 83.233 185.611 81.5873 190.971 80.0691C195.497 78.7872 200.037 77.5034 204.411 75.7568C212.867 72.3803 220.91 66.6608 223.06 57.2843C225.097 48.3976 221.662 38.7504 215.639 32.1487C208.67 24.5109 198.163 21.1627 188.09 20.621C176.781 20.0128 165.732 22.8485 155.103 26.4473C143.766 30.2858 132.673 34.6993 121.097 37.8084C109.617 40.8884 97.9155 43.0677 86.0978 44.3264C80.3127 44.9436 74.3527 45.6405 68.5332 45.168C63.6559 44.772 58.8035 43.3349 55.209 39.867C52.1269 36.8934 50.2909 32.8067 50.9221 28.4939C51.0367 27.7106 52.2244 28.0436 52.1105 28.8222C51.3421 34.072 54.904 38.9095 59.2931 41.3875C64.3659 44.2515 70.5386 44.2554 76.1863 43.9278C88.4321 43.1868 100.595 41.4253 112.549 38.6614C124.295 35.9735 135.621 32.1311 146.935 28.0264C157.68 24.1281 168.666 20.3233 180.145 19.479C190.105 18.7463 200.583 20.2001 209.261 25.4153C216.887 29.9987 222.495 37.6423 224.282 46.4135C226.028 54.9846 223.61 63.6115 217.134 69.5927C210.429 75.7856 201.235 78.4332 192.667 80.8717C181.801 83.9644 171.167 87.5797 160.874 92.2738C150.441 97.0184 140.435 102.654 130.967 109.119C121.828 115.376 112.809 123.249 109.918 134.411C108.572 139.611 108.821 145.126 111.074 150.037C113.077 154.404 116.376 158.077 120.219 160.91C129.388 167.671 140.945 169.058 152.021 169.197C164.461 169.352 176.901 168.931 189.345 169.136C214.706 169.553 240.014 171.099 265.27 173.775C271.599 174.446 277.92 175.188 284.232 176.001C289.91 176.732 295.608 177.458 301.19 178.756C311.116 181.064 320.775 185.503 326.944 193.935C329.682 197.589 331.379 201.92 331.852 206.466C332.284 211.209 331.125 215.961 328.985 220.18C324.247 229.519 315.373 235.459 305.949 239.362C300.902 241.452 295.666 243.035 290.441 244.608C289.679 244.837 289.354 243.645 290.113 243.417Z" fill="#F2F2F2"/>
<path d="M51.7179 38.4831C57.1631 38.4831 61.5773 34.0606 61.5773 28.6051C61.5773 23.1496 57.1631 18.7271 51.7179 18.7271C46.2727 18.7271 41.8585 23.1496 41.8585 28.6051C41.8585 34.0606 46.2727 38.4831 51.7179 38.4831Z" fill="#F2F2F2"/>
<path d="M120.118 57.2102C125.563 57.2102 129.977 52.7876 129.977 47.3321C129.977 41.8767 125.563 37.4541 120.118 37.4541C114.672 37.4541 110.258 41.8767 110.258 47.3321C110.258 52.7876 114.672 57.2102 120.118 57.2102Z" fill="#F2F2F2"/>
<path d="M178.042 19.756C183.487 19.756 187.901 15.3335 187.901 9.87801C187.901 4.42254 183.487 0 178.042 0C172.596 0 168.182 4.42254 168.182 9.87801C168.182 15.3335 172.596 19.756 178.042 19.756Z" fill="#F2F2F2"/>
<path d="M214.193 61.7376C219.638 61.7376 224.052 57.315 224.052 51.8596C224.052 46.4041 219.638 41.9816 214.193 41.9816C208.748 41.9816 204.333 46.4041 204.333 51.8596C204.333 57.315 208.748 61.7376 214.193 61.7376Z" fill="#F2F2F2"/>
<path d="M165.306 110.304C170.752 110.304 175.166 105.882 175.166 100.426C175.166 94.971 170.752 90.5484 165.306 90.5484C159.861 90.5484 155.447 94.971 155.447 100.426C155.447 105.882 159.861 110.304 165.306 110.304Z" fill="#F2F2F2"/>
<path d="M103.274 133.765C108.72 133.765 113.134 129.342 113.134 123.887C113.134 118.431 108.72 114.009 103.274 114.009C97.8291 114.009 93.4149 118.431 93.4149 123.887C93.4149 129.342 97.8291 133.765 103.274 133.765Z" fill="#F2F2F2"/>
<path d="M169.004 170.396C174.449 170.396 178.863 165.973 178.863 160.518C178.863 155.062 174.449 150.64 169.004 150.64C163.559 150.64 159.144 155.062 159.144 160.518C159.144 165.973 163.559 170.396 169.004 170.396Z" fill="#F2F2F2"/>
<path d="M239.663 190.975C245.108 190.975 249.522 186.552 249.522 181.097C249.522 175.641 245.108 171.219 239.663 171.219C234.218 171.219 229.803 175.641 229.803 181.097C229.803 186.552 234.218 190.975 239.663 190.975Z" fill="#F2F2F2"/>
<path d="M322.235 186.447C327.681 186.447 332.095 182.025 332.095 176.569C332.095 171.114 327.681 166.691 322.235 166.691C316.79 166.691 312.376 171.114 312.376 176.569C312.376 182.025 316.79 186.447 322.235 186.447Z" fill="#F2F2F2"/>
<path d="M175.196 27.9891C145.662 28.1981 121.48 52.2437 121.06 81.831C121.057 82.1042 121.055 84.0249 121.055 86.5371C121.055 90.2206 122.516 93.7531 125.115 96.3578C127.715 98.9625 131.241 100.426 134.917 100.426C136.74 100.426 138.544 100.066 140.228 99.3664C141.911 98.667 143.441 97.6421 144.729 96.3503C146.017 95.0585 147.038 93.525 147.734 91.8376C148.431 90.1501 148.788 88.3418 148.787 86.5158C148.785 84.8069 148.784 83.6241 148.784 83.5515C148.783 78.9788 149.971 74.4846 152.229 70.5111C154.488 66.5375 157.74 63.2214 161.665 60.889C165.591 58.5565 170.055 57.2881 174.618 57.2085C179.182 57.1289 183.687 58.2408 187.692 60.4348C191.696 62.6289 195.061 65.8295 197.457 69.7219C199.852 73.6143 201.194 78.0643 201.352 82.6343C201.51 87.2042 200.478 91.7366 198.358 95.7857C196.237 99.8348 193.101 103.261 189.257 105.727L189.262 105.733C189.262 105.733 169.532 118.459 163.516 135.917L163.522 135.918C162.464 139.495 161.928 143.205 161.93 146.935C161.93 148.469 162.02 161.885 162.194 172.774C162.255 176.531 163.788 180.113 166.461 182.748C169.135 185.384 172.736 186.86 176.486 186.859C178.371 186.859 180.237 186.486 181.977 185.76C183.717 185.035 185.296 183.972 186.625 182.633C187.953 181.294 189.004 179.704 189.717 177.957C190.43 176.209 190.792 174.337 190.78 172.449C190.72 162.477 190.687 150.865 190.687 150.022C190.687 139.303 201.009 128.622 209.487 121.657C219.25 113.636 226.276 102.706 229.098 90.377C229.722 87.8386 230.067 85.2392 230.124 82.6254C230.124 75.4171 228.701 68.28 225.935 61.6253C223.17 54.9707 219.118 48.93 214.012 43.8514C208.906 38.7728 202.848 34.7566 196.186 32.0342C189.524 29.3118 182.39 27.937 175.196 27.9891Z" fill="#473F97"/>
<path d="M346.511 245H0.489133C0.359649 245 0.2356 244.948 0.144174 244.856C0.0527477 244.764 0.00140381 244.64 0.00140381 244.51C0.00140381 244.38 0.0527477 244.256 0.144174 244.164C0.2356 244.072 0.359649 244.02 0.489133 244.02H346.511C346.641 244.02 346.765 244.072 346.857 244.163C346.948 244.255 347 244.38 347 244.51C347 244.64 346.948 244.765 346.857 244.857C346.765 244.948 346.641 245 346.511 245Z" fill="#3F3D56"/>
<path d="M258.172 112.361C264.979 112.361 270.497 106.833 270.497 100.013C270.497 93.1938 264.979 87.6656 258.172 87.6656C251.366 87.6656 245.848 93.1938 245.848 100.013C245.848 106.833 251.366 112.361 258.172 112.361Z" fill="#2F2E41"/>
<path d="M235.398 239.595H230.362L227.966 220.132H235.4L235.398 239.595Z" fill="#A0616A"/>
<path d="M226.765 238.153H236.478V244.28H220.649C220.649 243.475 220.807 242.679 221.114 241.935C221.422 241.192 221.872 240.517 222.44 239.948C223.008 239.379 223.682 238.927 224.424 238.619C225.166 238.311 225.961 238.153 226.765 238.153Z" fill="#2F2E41"/>
<path d="M274.425 239.595H269.389L266.993 220.132H274.426L274.425 239.595Z" fill="#A0616A"/>
<path d="M265.791 238.153H275.505V244.28H259.676C259.676 243.475 259.834 242.679 260.141 241.935C260.449 241.192 260.899 240.517 261.467 239.948C262.035 239.379 262.709 238.927 263.451 238.619C264.193 238.311 264.988 238.153 265.791 238.153Z" fill="#2F2E41"/>
<path d="M256.299 112.433C261.872 112.433 266.389 107.907 266.389 102.324C266.389 96.7409 261.872 92.215 256.299 92.215C250.727 92.215 246.209 96.7409 246.209 102.324C246.209 107.907 250.727 112.433 256.299 112.433Z" fill="#A0616A"/>
<path d="M262.313 145.045L266.828 134.652C267.924 132.214 268.239 129.495 267.727 126.871C267.216 124.246 265.904 121.845 263.973 120C263.576 119.607 263.155 119.24 262.712 118.901C260.484 117.155 257.739 116.203 254.91 116.197C253.009 116.204 251.131 116.622 249.406 117.423C249.258 117.489 249.114 117.559 248.966 117.629C248.683 117.765 248.403 117.913 248.132 118.065C246.364 119.083 244.858 120.502 243.738 122.209C242.618 123.917 241.914 125.864 241.682 127.894L239.69 144.621C239.189 145.934 221.31 193.348 227.563 229.547C227.63 229.933 227.818 230.289 228.1 230.56C228.382 230.832 228.744 231.006 229.132 231.057L235.471 231.922C235.934 231.985 236.404 231.87 236.785 231.601C237.167 231.331 237.433 230.927 237.529 230.469L248.165 179.675C248.231 179.36 248.401 179.075 248.648 178.868C248.894 178.661 249.203 178.542 249.525 178.531C249.846 178.52 250.162 178.618 250.422 178.808C250.682 178.998 250.871 179.27 250.958 179.581L265.986 232.996C266.093 233.384 266.324 233.726 266.644 233.97C266.964 234.214 267.355 234.346 267.756 234.346C267.876 234.345 267.996 234.334 268.114 234.313L275.858 232.819C276.308 232.735 276.71 232.485 276.986 232.119C277.262 231.752 277.391 231.296 277.349 230.839C276.211 218.125 270.164 154.441 262.313 145.045Z" fill="#2F2E41"/>
<path d="M217.087 110.737C217.017 111.338 217.08 111.947 217.27 112.521C217.46 113.095 217.774 113.62 218.189 114.06C218.604 114.5 219.11 114.843 219.672 115.065C220.233 115.288 220.837 115.384 221.44 115.348L227.08 128.927L231.346 122.591L225.336 110.667C225.208 109.657 224.714 108.728 223.948 108.058C223.182 107.388 222.198 107.023 221.181 107.031C220.164 107.04 219.186 107.422 218.432 108.105C217.677 108.787 217.199 109.724 217.087 110.737Z" fill="#A0616A"/>
<path d="M255.74 158.718C256.34 158.646 256.916 158.443 257.429 158.124C257.942 157.805 258.379 157.377 258.709 156.87C259.039 156.363 259.254 155.79 259.339 155.191C259.425 154.592 259.377 153.982 259.202 153.403L271.068 144.744L263.924 142.063L253.751 150.697C252.8 151.057 252.014 151.755 251.542 152.657C251.07 153.559 250.944 154.604 251.189 155.593C251.435 156.581 252.033 157.445 252.872 158.021C253.711 158.597 254.731 158.845 255.74 158.718Z" fill="#A0616A"/>
<path d="M236.396 137.98C235.941 137.979 235.487 137.935 235.041 137.846C233.961 137.64 232.949 137.171 232.093 136.481C231.237 135.791 230.564 134.9 230.132 133.888L222.231 124.235C222.064 124.031 221.942 123.794 221.874 123.539C221.806 123.284 221.793 123.017 221.837 122.757C221.88 122.496 221.978 122.248 222.125 122.029C222.272 121.81 222.463 121.624 222.687 121.485L228.309 117.999C228.516 117.87 228.747 117.784 228.988 117.745C229.229 117.706 229.476 117.716 229.713 117.773C229.951 117.83 230.174 117.933 230.372 118.077C230.569 118.222 230.736 118.403 230.862 118.612L236.431 127.805L247.096 119.908C247.946 119.462 248.927 119.337 249.86 119.555C250.794 119.774 251.618 120.322 252.182 121.099C252.745 121.876 253.011 122.831 252.931 123.788C252.85 124.745 252.428 125.641 251.743 126.313L241.098 136.041C239.847 137.283 238.157 137.98 236.396 137.98Z" fill="#2F2E41"/>
<path d="M265.214 152.497C265.199 152.497 265.185 152.497 265.17 152.497C264.911 152.491 264.656 152.43 264.422 152.318C264.188 152.207 263.979 152.048 263.81 151.851L258.812 146.009C258.642 145.81 258.516 145.577 258.442 145.326C258.368 145.074 258.349 144.81 258.385 144.55C258.42 144.291 258.511 144.042 258.65 143.82C258.788 143.598 258.973 143.408 259.19 143.262L268.549 137.011L260.071 126.799C259.578 125.975 259.397 125.001 259.561 124.055C259.726 123.108 260.224 122.253 260.966 121.645C261.708 121.036 262.644 120.716 263.603 120.741C264.561 120.767 265.478 121.138 266.187 121.785L276.491 131.874C277.302 132.616 277.921 133.545 278.295 134.579C278.669 135.614 278.787 136.724 278.639 137.815C278.49 138.905 278.08 139.943 277.443 140.84C276.806 141.736 275.961 142.465 274.981 142.962L266.559 151.916C266.386 152.099 266.178 152.246 265.946 152.346C265.715 152.446 265.466 152.497 265.214 152.497Z" fill="#2F2E41"/>
<path d="M253.734 130.972C253.654 130.972 253.574 130.967 253.494 130.957C253.146 130.914 252.817 130.773 252.547 130.549C252.277 130.325 252.077 130.028 251.97 129.694L248.214 118.157C248.12 117.865 248.134 117.549 248.255 117.268C248.375 116.986 248.593 116.757 248.869 116.624L248.991 116.566C249.101 116.514 249.211 116.462 249.322 116.412C251.074 115.598 252.98 115.174 254.91 115.168C257.417 115.172 259.867 115.91 261.961 117.29C262.241 117.477 262.437 117.767 262.507 118.098C262.576 118.429 262.513 118.773 262.331 119.058L255.285 130.116C255.12 130.379 254.891 130.595 254.62 130.744C254.348 130.894 254.044 130.972 253.734 130.972Z" fill="#E6E6E6"/>
<path d="M267.889 94.5008C270.116 94.5008 271.922 92.6919 271.922 90.4604C271.922 88.229 270.116 86.42 267.889 86.42C265.662 86.42 263.856 88.229 263.856 90.4604C263.856 92.6919 265.662 94.5008 267.889 94.5008Z" fill="#2F2E41"/>
<path d="M254.064 86.0193C251.231 86.0193 248.515 87.1468 246.512 89.1536C244.509 91.1605 243.383 93.8824 243.383 96.7205V101.248H248.941L251.599 96.7205L252.397 101.248H269.264L264.745 96.7205C264.745 93.8824 263.62 91.1605 261.617 89.1536C259.614 87.1468 256.897 86.0193 254.064 86.0193Z" fill="#2F2E41"/>
<path d="M269.962 87.6929C270.408 86.2958 271.331 85.1009 272.569 84.3183C273.807 83.5358 275.281 83.2157 276.732 83.4142C279.302 83.8447 281.334 85.9144 282.545 88.2261C283.755 90.5377 284.315 93.125 285.128 95.6049C285.942 98.0849 287.097 100.578 289.152 102.184C291.206 103.789 294.359 104.224 296.377 102.573C296.147 104.294 295.382 105.899 294.191 107.161C293 108.422 291.444 109.277 289.742 109.604C288.039 109.931 286.278 109.713 284.706 108.982C283.134 108.25 281.831 107.043 280.982 105.529C279.917 103.631 279.642 101.406 279.326 99.2517C279.01 97.0974 278.6 94.8684 277.329 93.1024C276.057 91.3365 273.678 90.1831 271.658 90.9875L269.962 87.6929Z" fill="#2F2E41"/>
<path d="M138.831 93.8569C135.155 93.8565 131.629 92.393 129.029 89.7883C126.43 87.1836 124.969 83.6511 124.969 79.9676C124.969 77.4554 124.971 75.5346 124.974 75.2614C125.091 66.6566 127.254 58.2037 131.284 50.604C124.663 59.6847 121.023 70.6024 120.866 81.8468C120.863 82.1199 120.861 84.0407 120.861 86.5529C120.861 90.2364 122.322 93.7689 124.921 96.3736C127.521 98.9783 131.047 100.442 134.723 100.442C137.744 100.441 140.683 99.452 143.091 97.6252C145.5 95.7985 147.248 93.2339 148.07 90.3211C145.531 92.6016 142.241 93.861 138.831 93.8569Z" fill="#3F3D56"/>
<path d="M176.135 57.2551C180.386 57.4585 184.523 58.6923 188.193 60.8507C191.862 63.009 194.954 66.0274 197.203 69.6466C199.451 73.2659 200.79 77.3778 201.103 81.6295C201.416 85.8811 200.695 90.1453 199.001 94.0561C201.451 91.1728 203.252 87.794 204.281 84.1501C205.31 80.5062 205.543 76.6829 204.963 72.9407C204.383 69.1986 203.005 65.6257 200.923 62.4656C198.84 59.3054 196.101 56.6324 192.894 54.6287C189.687 52.625 186.086 51.3377 182.337 50.8547C178.588 50.3716 174.779 50.7041 171.17 51.8295C167.561 52.9549 164.237 54.8468 161.424 57.3761C158.611 59.9053 156.375 63.0126 154.869 66.486C157.472 63.4186 160.743 60.9911 164.43 59.3907C168.117 57.7902 172.122 57.0596 176.135 57.2551Z" fill="#3F3D56"/>
<path d="M180.4 180.289C176.65 180.29 173.049 178.814 170.376 176.179C167.702 173.544 166.169 169.961 166.108 166.204C165.934 155.315 165.844 141.899 165.844 140.366C165.842 136.636 166.378 132.925 167.436 129.349L167.431 129.347C168.055 127.552 168.81 125.805 169.688 124.12C166.992 127.719 164.847 131.7 163.322 135.933L163.327 135.934C162.27 139.51 161.734 143.221 161.736 146.951C161.736 148.484 161.826 161.9 162 172.789C162.061 176.547 163.594 180.129 166.267 182.764C168.941 185.399 172.542 186.876 176.292 186.875C179.385 186.874 182.393 185.869 184.867 184.01C187.341 182.152 189.147 179.539 190.014 176.565C187.386 178.966 183.957 180.294 180.4 180.289Z" fill="#3F3D56"/>
<path d="M51.9841 239.783L57.0202 239.782L59.4165 220.319L51.9829 220.32L51.9841 239.783Z" fill="#FFB8B8"/>
<path d="M66.7337 244.467L50.905 244.468L50.9047 238.341L60.6178 238.34C62.2397 238.34 63.7953 238.986 64.9423 240.135C66.0892 241.284 66.7336 242.842 66.7337 244.467Z" fill="#2F2E41"/>
<path d="M33.9086 239.783L38.9447 239.782L41.3409 220.319L33.9073 220.32L33.9086 239.783Z" fill="#FFB8B8"/>
<path d="M48.6581 244.467L32.8293 244.468L32.8291 238.341L42.5422 238.34C44.1641 238.34 45.7197 238.986 46.8667 240.135C48.0136 241.284 48.658 242.842 48.6581 244.467Z" fill="#2F2E41"/>
<path d="M38.3097 233.797L33.3902 233.537C33.1366 233.524 32.8881 233.46 32.6591 233.35C32.4302 233.24 32.2254 233.085 32.0565 232.895C31.8877 232.705 31.7582 232.483 31.6756 232.242C31.5929 232.002 31.5588 231.747 31.5751 231.493L37.4548 166.271L64.5317 173.591L67.1404 172.878L58.9824 230.617C58.9129 231.052 58.6976 231.449 58.3721 231.744C58.0466 232.04 57.6303 232.215 57.192 232.241L51.889 232.488C51.6238 232.503 51.3584 232.463 51.1097 232.369C50.861 232.276 50.6342 232.132 50.4438 231.947C50.2534 231.761 50.1035 231.538 50.0036 231.292C49.9036 231.045 49.8557 230.781 49.8631 230.515L50.8239 195.861C50.8284 195.7 50.7729 195.544 50.6682 195.423C50.5635 195.302 50.4173 195.224 50.2583 195.206C50.0994 195.187 49.9393 195.229 49.8095 195.323C49.6798 195.416 49.5898 195.555 49.5573 195.712L40.2908 232.266C40.2033 232.7 39.9684 233.09 39.6261 233.369C39.2838 233.649 38.8553 233.801 38.4137 233.8C38.3793 233.8 38.3446 233.799 38.3097 233.797Z" fill="#2F2E41"/>
<path d="M52.8883 112.906C58.4608 112.906 62.9782 108.38 62.9782 102.797C62.9782 97.2137 58.4608 92.6877 52.8883 92.6877C47.3159 92.6877 42.7985 97.2137 42.7985 102.797C42.7985 108.38 47.3159 112.906 52.8883 112.906Z" fill="#FFB8B8"/>
<path d="M36.0894 132.496L37.1988 156.478L37.5999 165.203C37.6159 165.583 37.7446 165.949 37.9695 166.255C38.1945 166.562 38.5056 166.793 38.8628 166.922L64.8818 176.365C65.092 176.443 65.3147 176.482 65.5389 176.48C65.7952 176.481 66.0491 176.431 66.2855 176.332C66.5218 176.232 66.7358 176.086 66.9146 175.902C67.0935 175.719 67.2335 175.5 67.3263 175.261C67.4191 175.022 67.4628 174.766 67.4548 174.509L66.3881 131.389C66.318 127.851 65.0182 124.449 62.7127 121.768C60.4071 119.088 57.2404 117.297 53.7583 116.705C53.5066 116.666 53.2506 116.628 52.9945 116.594C50.8354 116.325 48.6437 116.534 46.5738 117.205C44.5038 117.877 42.6058 118.994 41.0133 120.48C39.3643 121.999 38.0686 123.863 37.2178 125.939C36.3669 128.016 35.9817 130.254 36.0894 132.496Z" fill="#CCCCCC"/>
<path d="M77.311 171.579C76.6956 171.388 76.1334 171.055 75.6691 170.608C75.2049 170.16 74.8516 169.61 74.6373 169.001C74.4231 168.392 74.3538 167.741 74.4351 167.101C74.5164 166.461 74.7459 165.848 75.1055 165.312L66.2821 153.558L73.8961 153.085L81.1076 164.32C81.8797 164.918 82.4169 165.77 82.6251 166.725C82.8333 167.68 82.6991 168.678 82.2462 169.544C81.7932 170.41 81.0504 171.089 80.148 171.461C79.2456 171.833 78.2412 171.875 77.311 171.579Z" fill="#FFB8B8"/>
<path d="M71.1073 163.185C70.8735 163.09 70.6609 162.95 70.4817 162.772C70.3025 162.594 70.1603 162.382 70.0634 162.149L56.7703 130.418C56.5095 129.797 56.3734 129.13 56.3699 128.456C56.3663 127.782 56.4954 127.114 56.7497 126.49C57.0039 125.866 57.3785 125.298 57.8518 124.819C58.3252 124.34 58.8881 123.96 59.5084 123.699C60.1287 123.438 60.7942 123.302 61.4669 123.299C62.1396 123.296 62.8063 123.426 63.4289 123.681C64.0515 123.936 64.6178 124.312 65.0954 124.787C65.5731 125.261 65.9527 125.826 66.2125 126.447L79.5056 158.178C79.702 158.649 79.7042 159.178 79.5116 159.65C79.3191 160.122 78.9475 160.499 78.4783 160.697L72.5769 163.178C72.3446 163.277 72.0951 163.328 71.8428 163.329C71.5905 163.33 71.3405 163.281 71.1073 163.185Z" fill="#CCCCCC"/>
<path d="M49.6444 162.066L62.412 137.573C62.6582 137.102 63.0808 136.748 63.5872 136.589C64.0936 136.43 64.6423 136.478 65.113 136.724L83.6452 146.421C84.1154 146.667 84.4687 147.091 84.6276 147.598C84.7865 148.106 84.7381 148.655 84.4929 149.127L71.7253 173.62C71.479 174.091 71.0564 174.445 70.55 174.604C70.0437 174.763 69.4949 174.715 69.0242 174.469L50.492 164.772C50.0219 164.525 49.6686 164.102 49.5097 163.595C49.3508 163.087 49.3992 162.537 49.6444 162.066Z" fill="#3F3D56"/>
<path d="M58.2068 150.876C57.9798 150.272 57.615 149.729 57.1416 149.291C56.6681 148.853 56.099 148.532 55.4797 148.354C54.8604 148.176 54.2081 148.145 53.5749 148.264C52.9416 148.383 52.3448 148.649 51.8323 149.04L39.599 140.909L39.5782 148.552L51.1983 155.102C51.8398 155.838 52.7197 156.325 53.6837 156.477C54.6477 156.629 55.6343 156.436 56.4705 155.932C57.3066 155.428 57.9389 154.645 58.2564 153.72C58.5739 152.796 58.5563 151.789 58.2068 150.876Z" fill="#FFB8B8"/>
<path d="M42.7398 152.595L32.7421 144.66C31.6605 144.296 30.6832 143.675 29.8941 142.849C29.105 142.024 28.5276 141.019 28.2116 139.92C27.8955 138.822 27.8502 137.663 28.0795 136.544C28.3088 135.424 28.8059 134.377 29.5281 133.492L38.6058 121.572C39.2366 120.8 40.1238 120.281 41.1052 120.11C42.0865 119.939 43.0965 120.128 43.9505 120.641C44.8045 121.155 45.4454 121.96 45.7562 122.908C46.0669 123.856 46.0267 124.884 45.6428 125.805L38.4603 137.577L49.0156 142.593C49.2611 142.709 49.479 142.877 49.6551 143.084C49.8311 143.291 49.9613 143.534 50.0369 143.795C50.1126 144.056 50.132 144.331 50.0939 144.6C50.0558 144.87 49.9611 145.128 49.8159 145.358L45.5551 152.114C45.4111 152.342 45.2209 152.537 44.9968 152.687C44.7727 152.837 44.5197 152.937 44.2542 152.983C44.2437 152.985 44.2331 152.986 44.2225 152.988C43.9616 153.027 43.6955 153.013 43.4404 152.945C43.1854 152.878 42.947 152.758 42.7398 152.595Z" fill="#CCCCCC"/>
<path d="M45.2642 109.566C45.2209 109.439 45.2072 109.304 45.224 109.171C45.2409 109.038 45.288 108.91 45.3616 108.798C45.4352 108.686 45.5334 108.593 45.6487 108.525C45.764 108.457 45.8933 108.416 46.0268 108.405C46.3001 108.42 46.5675 108.491 46.8129 108.612C47.0584 108.733 47.2767 108.903 47.4548 109.111C47.82 109.533 48.2451 109.899 48.7165 110.197C49.2046 110.443 49.8665 110.408 50.1448 109.938C50.4061 109.497 50.227 108.906 50.0689 108.393C49.6663 107.089 49.4411 105.737 49.3993 104.372C49.3537 102.849 49.5682 101.26 50.4097 100.072C51.4959 98.5388 53.438 97.9568 55.276 97.999C57.1139 98.0412 58.9221 98.6096 60.7426 98.969C61.3711 99.093 62.1099 99.1564 62.5303 98.6684C62.9773 98.1495 62.8131 97.3096 62.623 96.6089C62.1296 94.7908 61.6062 92.911 60.46 91.4426C59.2206 89.9169 57.4502 88.9182 55.5053 88.6479C53.6381 88.4162 51.7427 88.6318 49.9748 89.277C47.0946 90.1865 44.5602 91.9554 42.7106 94.3471C40.8039 96.8906 39.98 100.087 40.419 103.237C40.848 105.981 42.2992 108.46 44.4802 110.174L45.2642 109.566Z" fill="#2F2E41"/>
<path d="M173.056 239.863C170.372 238.691 167.996 236.911 166.116 234.662C164.236 232.413 162.903 229.757 162.223 226.904C161.543 224.05 161.534 221.078 162.197 218.221C162.86 215.363 164.177 212.699 166.044 210.439C163.88 212.022 162.076 214.048 160.753 216.383C159.431 218.718 158.619 221.308 158.371 223.981C158.124 226.654 158.447 229.35 159.319 231.888C160.19 234.427 161.591 236.751 163.428 238.706C165.265 240.661 167.495 242.202 169.972 243.227C172.449 244.252 175.115 244.737 177.793 244.651C180.471 244.565 183.101 243.909 185.507 242.727C187.912 241.545 190.04 239.863 191.748 237.795C189.084 239.745 185.957 240.963 182.677 241.325C179.398 241.688 176.081 241.184 173.056 239.863Z" fill="#3F3D56"/>
</g>
<defs>
<clipPath id="clip0_2_78">
<rect width="347" height="245" fill="white"/>
</clipPath>
</defs>
</svg>
