<svg width="227" height="398" viewBox="0 0 227 398" fill="none" xmlns="http://www.w3.org/2000/svg">
<g clip-path="url(#clip0_2_44)">
<path d="M45.8263 42.5642L39.0096 12.3064L36.7861 2.44934C36.6017 1.63618 36.1018 0.929619 35.3966 0.485072C34.6913 0.0405243 33.8384 -0.105599 33.0254 0.0788505L29.6674 0.838512L2.73907 6.9157C2.33705 7.0063 1.95683 7.17525 1.62013 7.4129C1.28342 7.65055 0.996835 7.95224 0.776749 8.30072C0.556662 8.64921 0.407397 9.03766 0.337465 9.44388C0.267533 9.85009 0.278315 10.2661 0.369194 10.6682C-1.07646 24.1313 1.77832 36.5511 7.97284 48.1746C8.43034 49.0441 8.91532 49.9136 9.41855 50.783C9.55173 51.3842 9.86069 51.9322 10.3061 52.3572C10.6811 52.7155 11.1387 52.9757 11.6383 53.1146C12.1379 53.2535 12.664 53.2668 13.17 53.1535L16.702 52.3572L18.8797 51.863L43.4565 46.3167C44.2681 46.1332 44.9737 45.6349 45.4181 44.9312C45.8625 44.2275 46.0093 43.3761 45.8263 42.5642Z" fill="#E6E6E6"/>
<path d="M43.0081 40.88L36.5116 12.0957L34.9561 5.1857C34.7847 4.42492 34.3183 3.76333 33.6595 3.34631C33.0007 2.92929 32.2033 2.79094 31.4425 2.96168L29.3746 3.42846L5.41082 8.83749C4.65024 9.00897 3.98883 9.47547 3.57192 10.1345C3.155 10.7935 3.01669 11.5911 3.18738 12.352C3.39781 22.8315 4.49582 32.3408 9.00675 38.1434C9.52017 40.4004 10.622 42.4811 12.2003 44.174C13.7786 45.8668 15.7769 47.1113 17.992 47.7808C18.0469 47.7992 18.0927 47.8175 18.1476 47.8358C18.1842 47.8449 18.2299 47.8632 18.2665 47.8724C20.3515 48.4592 22.55 48.5158 24.6624 48.0371L40.7846 44.3944C41.5452 44.223 42.2066 43.7565 42.6235 43.0975C43.0405 42.4385 43.1788 41.6409 43.0081 40.88Z" fill="white"/>
<path d="M19.1335 18.4351C19.6638 17.8231 20.3778 17.3992 21.1688 17.2266C21.9598 17.0541 22.7854 17.1423 23.5222 17.4779C25.1214 18.2768 25.7418 19.9767 25.4863 21.6669C25.2009 23.555 24.2149 25.2739 24.1254 27.2072C24.047 28.8991 24.6775 30.6768 26.1764 31.5876C27.2511 32.2408 28.3574 30.6239 27.2775 29.9676C25.5004 28.8876 26.0976 26.5144 26.613 24.8956C27.2567 22.8743 27.9274 20.8136 27.1311 18.7309C26.7787 17.8589 26.2132 17.0892 25.4865 16.4922C24.7598 15.8953 23.8951 15.4901 22.9714 15.3138C22.0477 15.1375 21.0946 15.1957 20.1992 15.483C19.3038 15.7703 18.4947 16.2777 17.8459 16.9586C16.9979 17.8732 18.2749 19.3613 19.1335 18.4351Z" fill="#473F97"/>
<path d="M27.7599 37.2333C28.8415 37.2333 29.7184 36.3563 29.7184 35.2743C29.7184 34.1924 28.8415 33.3153 27.7599 33.3153C26.6782 33.3153 25.8014 34.1924 25.8014 35.2743C25.8014 36.3563 26.6782 37.2333 27.7599 37.2333Z" fill="#473F97"/>
<path d="M151.025 378.67L120.019 378.485L109.917 378.426C108.181 378.417 106.758 379.077 106.739 379.9L106.699 381.534L106.358 394.63C106.332 395.449 107.722 396.128 109.457 396.137C122.105 398.206 134.987 398.415 147.695 396.757C148.646 396.642 149.604 396.515 150.567 396.377C151.154 396.386 151.74 396.306 152.304 396.141C153.161 395.876 153.728 395.423 153.743 394.907L153.788 393.189L153.813 392.13L154.124 380.177C154.143 379.353 152.751 378.678 151.025 378.67Z" fill="#E6E6E6"/>
<path d="M148.733 379.785L119.234 379.615L112.154 379.572C110.531 379.562 109.196 380.179 109.175 380.948L109.149 381.954L108.847 393.609C108.827 394.379 110.126 395.012 111.749 395.022C121.988 396.079 131.49 396.619 138.18 395.176C143.05 395.2 147.345 393.955 149.637 392.09C149.668 392.067 149.696 392.048 149.727 392.024C149.744 392.008 149.773 391.989 149.79 391.973C150.257 391.629 150.645 391.19 150.928 390.684C151.212 390.178 151.385 389.618 151.435 389.04L151.634 381.198C151.655 380.429 150.355 379.795 148.733 379.785Z" fill="white"/>
<path d="M121.365 388.332C120.461 387.69 120.367 386.817 121.453 386.202C122.601 385.552 124.398 385.452 125.983 385.756C127.752 386.096 129.195 386.74 131.054 386.994C132.681 387.217 134.556 387.122 135.79 386.53C136.675 386.106 135.359 385.417 134.47 385.844C133.008 386.545 130.838 386.008 129.384 385.592C127.568 385.072 125.719 384.536 123.509 384.674C119.488 384.925 117.39 387.172 119.631 388.764C120.323 389.256 122.067 388.831 121.365 388.332Z" fill="#E6E6E6"/>
<path d="M139.743 387.134C140.824 387.134 141.701 386.718 141.701 386.205C141.701 385.692 140.824 385.276 139.743 385.276C138.661 385.276 137.784 385.692 137.784 386.205C137.784 386.718 138.661 387.134 139.743 387.134Z" fill="#E6E6E6"/>
<path d="M1.75634 151.61C-0.9377 140.292 -0.488416 129.144 4.12476 118.223C4.17346 117.547 4.48812 116.918 4.99972 116.474C5.51133 116.03 6.17809 115.807 6.85372 115.855L32.0618 117.644C32.7373 117.692 33.3659 118.007 33.8097 118.519C34.2535 119.031 34.4763 119.698 34.4291 120.373L32.0607 153.761C32.012 154.436 31.6973 155.065 31.1857 155.509C30.6741 155.953 30.0074 156.176 29.3317 156.129L4.12369 154.339C3.44817 154.291 2.81954 153.976 2.37573 153.464C1.93192 152.952 1.70917 152.285 1.75634 151.61Z" fill="#F2F2F2"/>
<path d="M4.4053 141.663C2.24929 136.085 3.62782 128.415 5.92793 120.198C5.97353 119.566 6.26821 118.977 6.74735 118.561C7.22648 118.145 7.85093 117.936 8.48368 117.981L30.1479 119.518C30.7806 119.564 31.3693 119.859 31.785 120.338C32.2006 120.817 32.4093 121.442 32.3651 122.075L30.2575 151.785C30.2119 152.418 29.9172 153.006 29.438 153.422C28.9589 153.838 28.3344 154.047 27.7017 154.002L14.2811 153.05C11.4631 152.847 8.84067 151.534 6.98924 149.399C5.1378 147.264 4.20853 144.482 4.4053 141.663Z" fill="white"/>
<path d="M19.404 143.118C18.7423 143.005 18.0806 142.891 17.4189 142.777C17.7237 142.057 17.8997 141.29 17.9387 140.509C18.2519 136.33 18.2834 132.112 18.4505 127.925C18.4462 127.772 18.3976 127.623 18.3107 127.497C18.2239 127.371 18.1023 127.272 17.9609 127.214C17.8194 127.155 17.6639 127.139 17.5133 127.166C17.3627 127.194 17.2233 127.265 17.112 127.37C15.4501 128.747 13.7882 130.124 12.1263 131.501C11.3484 132.145 12.4631 133.249 13.2352 132.61C14.428 131.622 15.6208 130.633 16.8137 129.645C16.7042 132.389 16.5947 135.132 16.4852 137.876C16.4327 139.192 16.5927 140.792 16.0538 142.029C15.9801 142.196 15.8839 142.352 15.7679 142.493C15.0352 142.367 14.3026 142.241 13.5699 142.116C13.043 142.025 12.3735 142.465 12.6054 143.08C13.1097 144.418 14.5962 144.841 15.8709 144.325C15.9832 144.275 16.092 144.217 16.1962 144.151L18.9872 144.631C19.9743 144.8 20.3983 143.289 19.404 143.118Z" fill="#F2F2F2"/>
<path d="M93.2343 154.747C90.5403 143.429 90.9895 132.281 95.6027 121.36C95.6514 120.684 95.9661 120.055 96.4777 119.611C96.9893 119.167 97.656 118.945 98.3317 118.992L123.54 120.781C124.215 120.83 124.844 121.144 125.288 121.656C125.731 122.168 125.954 122.835 125.907 123.511L123.539 156.898C123.49 157.573 123.175 158.202 122.664 158.646C122.152 159.09 121.485 159.313 120.81 159.266L95.6016 157.477C94.9261 157.428 94.2975 157.113 93.8537 156.601C93.4099 156.09 93.1871 155.423 93.2343 154.747Z" fill="#F2F2F2"/>
<path d="M95.8833 144.8C93.7273 139.223 95.1058 131.552 97.4059 123.336C97.4515 122.703 97.7462 122.114 98.2253 121.698C98.7045 121.282 99.3289 121.074 99.9617 121.118L121.626 122.656C122.259 122.701 122.847 122.996 123.263 123.475C123.679 123.954 123.887 124.579 123.843 125.212L121.736 154.922C121.69 155.555 121.395 156.144 120.916 156.559C120.437 156.975 119.812 157.184 119.18 157.14L105.759 156.187C102.941 155.984 100.319 154.671 98.4672 152.536C96.6158 150.401 95.6865 147.619 95.8833 144.8Z" fill="white"/>
<path d="M110.026 139.135C110.314 139.001 110.586 138.835 110.839 138.642C111.51 138.088 112.007 137.351 112.268 136.52C112.529 135.689 112.544 134.8 112.31 133.962C111.294 130.226 106.827 130.203 103.743 130.653C102.748 130.798 103.171 132.31 104.16 132.165C106.238 131.863 109.501 131.618 110.618 133.888C110.873 134.422 110.963 135.019 110.878 135.604C110.793 136.189 110.536 136.736 110.14 137.174C109.667 137.65 109.043 137.946 108.375 138.014C107.729 137.732 107.027 137.601 106.322 137.631C105.595 137.665 105.19 138.722 105.926 139.092C106.577 139.417 107.295 139.586 108.022 139.586C108.625 139.878 109.129 140.34 109.47 140.917C109.811 141.494 109.974 142.158 109.939 142.827C109.869 143.285 109.71 143.725 109.47 144.121C109.23 144.517 108.914 144.862 108.541 145.136C108.167 145.41 107.743 145.607 107.293 145.716C106.843 145.825 106.376 145.844 105.918 145.772C104.933 145.574 104.511 147.086 105.501 147.285C106.177 147.412 106.872 147.402 107.543 147.253C108.215 147.105 108.85 146.822 109.409 146.422C109.969 146.022 110.441 145.513 110.799 144.925C111.156 144.337 111.391 143.683 111.489 143.003C111.552 142.289 111.452 141.571 111.199 140.902C110.946 140.232 110.545 139.628 110.026 139.135Z" fill="#F2F2F2"/>
<path d="M142.238 368.855L133.369 368.855L129.15 334.636L142.239 334.637L142.238 368.855Z" fill="#FFB6B6"/>
<path d="M142.55 378.11L115.276 378.109V377.764C115.277 374.948 116.395 372.247 118.386 370.256C120.377 368.264 123.077 367.146 125.892 367.146H125.893L130.874 363.365L140.169 367.146L142.55 367.146L142.55 378.11Z" fill="#2F2E41"/>
<path d="M183.011 387.678L174.142 387.678L169.923 353.459L183.012 353.46L183.011 387.678Z" fill="#FFB6B6"/>
<path d="M183.323 396.933L156.049 396.932V396.587C156.05 393.771 157.168 391.07 159.159 389.079C161.15 387.088 163.85 385.969 166.665 385.969H166.666L171.648 382.188L180.943 385.969L183.323 385.969L183.323 396.933Z" fill="#2F2E41"/>
<path d="M73.8909 114.029C74.5001 114.71 75.25 115.25 76.0886 115.613C76.9272 115.976 77.8346 116.152 78.748 116.129C79.6613 116.107 80.5589 115.886 81.3786 115.482C82.1982 115.079 82.9205 114.502 83.4953 113.791L113.736 122.402L118.174 114.62L82.1814 104.657C80.9141 103.778 79.3684 103.394 77.8374 103.579C76.3064 103.764 74.8964 104.504 73.8745 105.659C72.8526 106.815 72.2899 108.305 72.2929 109.847C72.2959 111.39 72.8645 112.878 73.8909 114.029Z" fill="#FFB6B6"/>
<path d="M152.531 186.047L120.711 258.82L117.052 270.323L128.115 351.062L145.971 350.191L145.931 339.837C145.931 339.837 141.682 337.532 145.917 336.28C150.153 335.028 149.975 331.849 145.882 327.164C141.79 322.479 145.69 277.643 145.69 277.643C145.69 277.643 162.542 261.502 160.706 257.285C158.87 253.068 162.278 253.068 162.278 253.068C162.278 253.068 165.911 252.419 166.05 250.652C166.189 248.886 168.881 245.334 168.881 245.334L167.938 369.684H183.345C183.345 369.684 190.389 357.976 189.005 355.456C187.621 352.936 185.685 352.689 189.005 349.676C192.325 346.662 197.198 349.128 195.023 343.451C192.848 337.773 193.407 276.506 193.407 276.506C193.407 276.506 201.978 240.952 196.682 238.538C191.387 236.124 194.02 236.464 197.147 233.157C200.273 229.849 194.97 230.152 197.622 227.647C200.273 225.143 200.38 195.673 200.38 195.673L152.531 186.047Z" fill="#2F2E41"/>
<path d="M202.78 206.533C180.475 206.481 161.338 211.495 139.033 211.443C140.486 201.383 145.564 185.615 147.017 175.553C149.06 161.4 147.476 152.953 149.513 138.801C149.717 137.415 149.916 136.035 150.115 134.649C150.92 129.054 148.991 123.46 152.451 117.551C153.925 115.031 156.377 112.459 160.439 109.802C168.875 110.66 168.729 106.853 177.166 107.711L179.957 113.274C180.313 115.387 181.593 116.762 183.329 117.802C186.899 119.962 192.398 120.715 195.702 123.637C199.852 127.308 199.575 133.18 198.342 138.91C197.903 140.95 197.343 142.968 196.815 144.866C192.566 160.158 197.998 171.825 202.426 186.01C202.846 187.355 198.869 192.557 199.29 193.853C200.005 196.049 202.563 198.782 202.156 200.266C201.652 202.103 201.149 203.832 202.78 206.533Z" fill="#473F97"/>
<path d="M198.342 138.91L149.513 138.801L147.945 138.795L90.0392 117.514L97.4494 117.766L100.889 109.834L102.546 106.022L136.675 117.431L152.451 117.551L182.195 117.771C182.576 117.776 182.953 117.787 183.329 117.802C186.899 119.962 192.398 120.715 195.702 123.637C199.852 127.308 199.575 133.18 198.342 138.91Z" fill="#473F97"/>
<path d="M164.982 106.193C173.746 106.193 180.85 99.0873 180.85 90.3216C180.85 81.5558 173.746 74.4498 164.982 74.4498C156.219 74.4498 149.115 81.5558 149.115 90.3216C149.115 99.0873 156.219 106.193 164.982 106.193Z" fill="#FFB6B6"/>
<path d="M162.727 103.964L164.02 108.098C166.886 106.683 175.017 104.719 177.404 102.592C179.79 100.466 181.636 97.5307 181.749 94.3357C181.807 92.6856 181.408 91.021 181.682 89.3928C181.992 87.553 183.127 85.9581 183.647 84.1663C184.133 82.2894 183.95 80.3018 183.129 78.5454C182.308 76.789 180.902 75.3736 179.15 74.5427C176.52 73.3864 173.512 73.711 170.653 73.4315C167.793 73.1521 164.604 71.8582 163.799 69.0995C163.498 68.068 163.532 66.8519 162.611 66.1765C162.148 65.867 161.587 65.7399 161.036 65.8196C160.485 65.8993 159.983 66.1802 159.627 66.6082C159.584 66.6563 159.544 66.705 159.504 66.7541C157.084 69.7913 152.522 70.0168 150.135 66.9534C149.979 66.7532 149.829 66.5484 149.685 66.3389C149.183 66.8088 148.78 67.3735 148.497 68.0003C148.215 68.6271 148.06 69.3037 148.041 69.9909C148.022 70.678 148.139 71.3622 148.386 72.0038C148.633 72.6453 149.004 73.2316 149.479 73.7287C148.577 73.7291 147.702 73.4255 146.994 72.867C146.286 72.3085 145.787 71.5277 145.577 70.6505C144.482 72.1634 143.358 73.7411 143.006 75.5754C142.654 77.4097 143.307 79.5791 144.989 80.3908C145.847 80.7301 146.769 80.881 147.69 80.8332C143.352 85.9661 145.955 85.8184 154.741 80.9672C159.099 81.05 157.378 85.101 157.434 89.4611C159.485 89.2639 161.598 89.0712 163.538 89.9352C164.441 90.3157 165.202 90.9701 165.714 91.8063C166.996 94.0088 165.725 96.2979 164.597 98.3012C163.634 100.014 162.721 102.076 163.52 103.871" fill="#2F2E41"/>
<path d="M133.848 237.02C134.647 236.578 135.341 235.968 135.882 235.231C136.422 234.494 136.796 233.649 136.978 232.753C137.16 231.857 137.145 230.933 136.935 230.044C136.724 229.154 136.323 228.321 135.759 227.602L150.896 200.037L144.303 193.974L126.563 226.846C125.424 227.885 124.706 229.307 124.544 230.841C124.383 232.375 124.79 233.915 125.688 235.169C126.585 236.423 127.912 237.304 129.416 237.646C130.92 237.987 132.497 237.764 133.848 237.02Z" fill="#FFB6B6"/>
<path d="M170.768 108.114L167.239 171.339L150.24 211.072L139.176 225.748L140.434 219.098L132.807 215.281L132.091 214.925L142.242 189.205L145.305 181.446L146.732 158.089L148.081 136.003C148.314 132.203 149.332 128.492 151.073 125.105C152.813 121.718 155.237 118.729 158.191 116.328L166.659 109.447L170.768 108.114Z" fill="#473F97"/>
<path d="M51.9385 108.212C49.2445 96.8937 49.6938 85.7462 54.307 74.8245C54.3557 74.1488 54.6703 73.52 55.1819 73.0761C55.6935 72.6322 56.3603 72.4094 57.0359 72.4565L82.244 74.2457C82.9195 74.2944 83.5481 74.6092 83.9919 75.1209C84.4357 75.6326 84.6585 76.2996 84.6113 76.9754L82.2429 110.362C82.1942 111.038 81.8795 111.667 81.3679 112.111C80.8563 112.555 80.1896 112.778 79.5139 112.73L54.3059 110.941C53.6304 110.893 53.0017 110.578 52.5579 110.066C52.1141 109.554 51.8914 108.887 51.9385 108.212Z" fill="#F2F2F2"/>
<path d="M54.5875 98.2645C52.4315 92.6873 53.81 85.0167 56.1101 76.8003C56.1557 76.1674 56.4504 75.5786 56.9296 75.1628C57.4087 74.7471 58.0331 74.5384 58.6659 74.5826L80.3301 76.1202C80.9627 76.1658 81.5515 76.4606 81.9672 76.9398C82.3828 77.4191 82.5915 78.0437 82.5473 78.6766L80.4397 108.387C80.3941 109.019 80.0994 109.608 79.6203 110.024C79.1411 110.44 78.5166 110.648 77.8839 110.604L64.4633 109.652C61.6453 109.449 59.0229 108.136 57.1714 106.001C55.32 103.866 54.3907 101.084 54.5875 98.2645Z" fill="white"/>
<path d="M67.9099 83.3135C65.6891 82.5426 63.2197 84.2994 62.9676 86.577C62.682 89.1586 65.4581 91.1965 67.8615 90.4949C68.8284 90.2127 68.417 88.6985 67.4447 88.9823C65.683 89.4966 63.8038 87.5939 64.8166 85.8928C65.0467 85.4822 65.3964 85.1514 65.8191 84.9446C66.2418 84.7377 66.7175 84.6645 67.1828 84.7347C67.5779 84.8442 67.9418 85.0447 68.2454 85.3203C68.5489 85.5958 68.7837 85.9387 68.9308 86.3214C69.7952 88.2698 68.768 90.2479 67.4064 91.6641C66.6299 92.4718 65.7189 93.0994 64.8819 93.8357C64.475 94.1432 64.1371 94.5325 63.8899 94.9787C63.6426 95.4248 63.4916 95.9178 63.4465 96.4259C63.4686 96.9974 63.6464 97.5519 63.9608 98.0295C64.2751 98.5071 64.7141 98.8896 65.2302 99.1356C66.5671 99.8234 68.0879 99.6047 69.5102 99.3758C70.5039 99.2159 70.0822 97.7041 69.0933 97.8633C67.8493 98.0635 65.9869 98.3668 65.1987 97.0694C64.5236 95.9583 65.9144 94.9827 66.6721 94.3917C68.5766 92.9062 70.5025 90.988 70.7885 88.4623C71.0227 86.3933 69.9715 84.0292 67.9099 83.3135Z" fill="#473F97"/>
<path d="M198.637 388.937C198.88 388.948 199.121 388.885 199.326 388.754C199.532 388.624 199.692 388.434 199.786 388.21C199.88 387.985 199.902 387.737 199.851 387.5C199.799 387.262 199.676 387.046 199.497 386.881L199.416 386.557C199.426 386.531 199.437 386.506 199.448 386.48C199.693 385.901 200.103 385.408 200.627 385.062C201.151 384.717 201.765 384.533 202.393 384.536C203.021 384.538 203.634 384.726 204.156 385.076C204.677 385.425 205.084 385.921 205.324 386.502C206.285 388.817 207.509 391.136 207.81 393.584C207.943 394.666 207.887 395.763 207.645 396.826C209.902 391.901 211.074 386.548 211.082 381.129C211.082 379.77 211.007 378.411 210.856 377.06C210.731 375.952 210.557 374.852 210.336 373.76C209.126 367.836 206.528 362.283 202.756 357.557C200.93 356.561 199.454 355.028 198.525 353.167C198.189 352.497 197.951 351.783 197.82 351.046C198.026 351.073 198.596 347.935 198.441 347.743C198.728 347.307 199.242 347.091 199.555 346.666C201.114 344.552 203.262 344.921 204.383 347.794C206.779 349.003 206.802 351.008 205.332 352.937C204.397 354.164 204.268 355.824 203.448 357.138C203.532 357.246 203.62 357.351 203.705 357.459C205.248 359.444 206.592 361.575 207.72 363.822C207.446 361.304 207.773 358.758 208.674 356.392C209.588 354.187 211.301 352.33 212.809 350.423C213.208 349.911 213.75 349.529 214.366 349.325C214.982 349.121 215.645 349.104 216.271 349.276C216.897 349.449 217.457 349.803 217.882 350.294C218.306 350.785 218.575 351.391 218.656 352.035C218.659 352.064 218.662 352.092 218.665 352.12C218.441 352.246 218.221 352.38 218.007 352.522C217.737 352.703 217.528 352.96 217.408 353.261C217.287 353.562 217.26 353.892 217.33 354.209C217.4 354.525 217.564 354.813 217.801 355.035C218.037 355.257 218.335 355.402 218.656 355.451L218.688 355.456C218.609 356.264 218.468 357.065 218.266 357.851C220.201 365.336 216.024 368.062 210.059 368.185C209.927 368.252 209.799 368.32 209.667 368.384C210.8 371.595 211.51 374.939 211.781 378.333C211.934 380.335 211.925 382.347 211.754 384.348L211.764 384.277C212.196 382.052 213.383 380.044 215.123 378.593C217.708 376.469 221.361 375.687 224.15 373.979C224.446 373.789 224.791 373.687 225.143 373.686C225.495 373.686 225.84 373.785 226.138 373.974C226.435 374.163 226.672 374.433 226.821 374.753C226.97 375.072 227.025 375.427 226.978 375.776L226.967 375.851C226.551 376.02 226.146 376.215 225.755 376.435C225.531 376.562 225.312 376.696 225.097 376.838C224.827 377.018 224.619 377.275 224.498 377.576C224.377 377.877 224.35 378.208 224.42 378.524C224.49 378.841 224.654 379.129 224.891 379.351C225.127 379.572 225.425 379.717 225.746 379.767L225.779 379.772C225.802 379.775 225.822 379.779 225.846 379.782C225.136 381.479 224.139 383.04 222.899 384.398C221.689 390.933 216.492 391.553 210.933 389.65H210.93C210.32 392.301 209.436 394.881 208.293 397.35H198.873C198.839 397.245 198.809 397.137 198.779 397.032C199.651 397.087 200.526 397.035 201.385 396.877C200.686 396.019 199.987 395.155 199.288 394.297C199.273 394.281 199.258 394.264 199.245 394.246C198.89 393.807 198.532 393.372 198.178 392.932L198.177 392.932C198.159 391.586 198.313 390.243 198.637 388.937Z" fill="#F2F2F2"/>
<path d="M93.28 397.378C93.2798 397.46 93.2957 397.541 93.3269 397.616C93.358 397.692 93.4039 397.761 93.4617 397.818C93.5195 397.876 93.5882 397.922 93.6638 397.953C93.7393 397.984 93.8203 398 93.9021 398H226.305C226.47 398 226.628 397.934 226.745 397.818C226.861 397.701 226.927 397.543 226.927 397.378C226.927 397.213 226.861 397.055 226.745 396.938C226.628 396.821 226.47 396.756 226.305 396.756H93.9021C93.8203 396.755 93.7393 396.771 93.6638 396.802C93.5882 396.834 93.5195 396.879 93.4617 396.937C93.4039 396.995 93.358 397.064 93.3269 397.139C93.2957 397.215 93.2798 397.296 93.28 397.378Z" fill="#CCCCCC"/>
<path d="M26.6258 53.6112C25.9716 63.2808 26.2859 74.2552 33.79 81.4285C35.5483 83.1249 37.648 84.4265 39.9491 85.2467C40.9028 85.583 41.3129 84.0681 40.366 83.7342C36.5111 82.3749 33.4783 79.3879 31.4577 75.8955C29.0889 71.8014 28.1851 67.0785 27.9872 62.3971C27.8953 59.4669 27.9643 56.5338 28.194 53.6112C28.2622 52.6035 26.6937 52.6078 26.6258 53.6112Z" fill="#3F3D56"/>
<path d="M38.3152 75.7388C40.1753 76.6031 42.1249 77.4826 43.5963 78.9522C44.9385 80.2929 45.8757 82.2484 45.3319 84.1594C44.4397 87.2945 40.4661 88.4765 37.6957 89.2242C37.5016 89.2851 37.3387 89.4189 37.2413 89.5976C37.1439 89.7762 37.1197 89.9857 37.1738 90.1819C37.2279 90.3781 37.356 90.5456 37.5311 90.6491C37.7062 90.7526 37.9147 90.784 38.1126 90.7368C40.8995 89.9847 44.0244 88.9347 45.8448 86.5482C47.9989 83.7242 46.9763 80.002 44.5566 77.6985C42.9977 76.2145 41.0367 75.2812 39.1067 74.3843C38.1972 73.9617 37.3999 75.3134 38.3152 75.7388Z" fill="#3F3D56"/>
</g>
<defs>
<clipPath id="clip0_2_44">
<rect width="227" height="398" fill="white"/>
</clipPath>
</defs>
</svg>
